<?xml version="1.0" encoding="utf-8"?>
<!-- Generator: Adobe Illustrator 25.2.0, SVG Export Plug-In . SVG Version: 6.00 Build 0)  -->
<svg version="1.1" xmlns="http://www.w3.org/2000/svg" xmlns:xlink="http://www.w3.org/1999/xlink" x="0px" y="0px"
	 viewBox="0 0 38 38" style="enable-background:new 0 0 38 38;" xml:space="preserve">
<style type="text/css">
	.st0{fill:#FAFCFE;stroke:#026634;stroke-miterlimit:10;}
	.st1{fill:none;stroke:#026634;stroke-width:0.3;stroke-miterlimit:10;}
</style>
<g id="_x31_">
	<rect x="-14.97" y="-22.78" class="st0" width="38" height="38"/>
	<g>
		<rect x="-14.97" y="-22.78" class="st1" width="38" height="38"/>
		<line class="st1" x1="-14.97" y1="7.62" x2="23.03" y2="7.62"/>
		<line class="st1" x1="-14.97" y1="0.02" x2="23.03" y2="0.02"/>
		<line class="st1" x1="-14.97" y1="-7.58" x2="23.03" y2="-7.58"/>
		<line class="st1" x1="-14.97" y1="-15.18" x2="23.03" y2="-15.18"/>
		<line class="st1" x1="15.43" y1="-22.78" x2="15.43" y2="15.22"/>
		<line class="st1" x1="7.83" y1="-22.78" x2="7.83" y2="15.22"/>
		<line class="st1" x1="0.23" y1="-22.78" x2="0.23" y2="15.22"/>
		<line class="st1" x1="-7.37" y1="-22.78" x2="-7.37" y2="15.22"/>
	</g>
</g>
<g id="_x32_">
	<rect x="-14.97" y="15.22" class="st0" width="38" height="38"/>
	<g>
		<rect x="-14.97" y="15.22" class="st1" width="38" height="38"/>
		<line class="st1" x1="-14.97" y1="45.62" x2="23.03" y2="45.62"/>
		<line class="st1" x1="-14.97" y1="38.02" x2="23.03" y2="38.02"/>
		<line class="st1" x1="-14.97" y1="30.42" x2="23.03" y2="30.42"/>
		<line class="st1" x1="-14.97" y1="22.82" x2="23.03" y2="22.82"/>
		<line class="st1" x1="15.43" y1="15.22" x2="15.43" y2="53.22"/>
		<line class="st1" x1="7.83" y1="15.22" x2="7.83" y2="53.22"/>
		<line class="st1" x1="0.23" y1="15.22" x2="0.23" y2="53.22"/>
		<line class="st1" x1="-7.37" y1="15.22" x2="-7.37" y2="53.22"/>
	</g>
</g>
<g id="_x33_">
	<rect x="23.03" y="-22.78" class="st0" width="38" height="38"/>
	<g>
		<rect x="23.03" y="-22.78" class="st1" width="38" height="38"/>
		<line class="st1" x1="23.03" y1="7.62" x2="61.03" y2="7.62"/>
		<line class="st1" x1="23.03" y1="0.02" x2="61.03" y2="0.02"/>
		<line class="st1" x1="23.03" y1="-7.58" x2="61.03" y2="-7.58"/>
		<line class="st1" x1="23.03" y1="-15.18" x2="61.03" y2="-15.18"/>
		<line class="st1" x1="53.43" y1="-22.78" x2="53.43" y2="15.22"/>
		<line class="st1" x1="45.83" y1="-22.78" x2="45.83" y2="15.22"/>
		<line class="st1" x1="38.23" y1="-22.78" x2="38.23" y2="15.22"/>
		<line class="st1" x1="30.63" y1="-22.78" x2="30.63" y2="15.22"/>
	</g>
</g>
<g id="_x34_">
	<rect x="23.03" y="15.22" class="st0" width="38" height="38"/>
	<g>
		<rect x="23.03" y="15.22" class="st1" width="38" height="38"/>
		<line class="st1" x1="23.03" y1="45.62" x2="61.03" y2="45.62"/>
		<line class="st1" x1="23.03" y1="38.02" x2="61.03" y2="38.02"/>
		<line class="st1" x1="23.03" y1="30.42" x2="61.03" y2="30.42"/>
		<line class="st1" x1="23.03" y1="22.82" x2="61.03" y2="22.82"/>
		<line class="st1" x1="53.43" y1="15.22" x2="53.43" y2="53.22"/>
		<line class="st1" x1="45.83" y1="15.22" x2="45.83" y2="53.22"/>
		<line class="st1" x1="38.23" y1="15.22" x2="38.23" y2="53.22"/>
		<line class="st1" x1="30.63" y1="15.22" x2="30.63" y2="53.22"/>
	</g>
</g>
</svg>
