<svg id="Layer_5" data-name="Layer 5" xmlns="http://www.w3.org/2000/svg" viewBox="0 0 454.74 372.68"><defs><style>.cls-1{fill:#f9f9f1;}.cls-2{fill:#db8758;}.cls-3{fill:#fef6dc;}.cls-4{fill:#9c1a04;}.cls-5{fill:#3a2419;}.cls-6{fill:#828282;}.cls-7{fill:#c9c7b1;}.cls-8{fill:none;stroke:#c9c7b1;stroke-miterlimit:10;}.cls-9{fill:#635c5c;}.cls-10{fill:#afaea7;}</style></defs><g id="body"><g id="fill_teeth"><path class="cls-1" d="M246,335.68c-1.08-1.39-3.34-1.85-4.9-2.48l-6.31-2.59c-1.52-.62-3.29.67-3.69,2.09a3.06,3.06,0,0,0,2.09,3.69l.66.26a3.18,3.18,0,0,0,.3,1.27c.56,1.23.1,2.74.56,4.06a31.09,31.09,0,0,0,2.48,4.62c1.64,2.91,6.57,1,5.49-2.31S249.18,339.77,246,335.68Z" transform="translate(-1.39 -0.64)"/></g><g id="fill_ears"><path class="cls-2" d="M122.16,168.29c-4.14-1.55-11,1.83-13.29-2.09-2.61-4.36-3-10.59-4.47-15.4a20.24,20.24,0,0,0-2.33-5.06c2.82-1.32,4.57-5.2,1.72-8.09-6.2-6.3-13.9-10.23-21.73-14.11-7.57-3.75-15.48-7.7-20.34-14.89-2.34-3.46-4.17-6.51-7.59-9.05A76.86,76.86,0,0,0,43.05,93c-8.41-4.27-17.72-5.15-25.41-10.89-5.16-3.86-10.15,4.82-5.05,8.63a32.77,32.77,0,0,0,5.55,3.31A4.5,4.5,0,0,0,18.67,98c5.41,8.8,10,18,14.55,27.3,1.8,3.71,3.7,7.4,5.45,11.14a4.37,4.37,0,0,0-.07,2.91,110.2,110.2,0,0,0,6.48,15.94A4.83,4.83,0,0,0,46.44,157c.07.19.16.37.24.56,1.87,4.5,2.73,9.43,5.45,13.54,5.75,8.68,14.42,16.2,22.48,22.68,3.93,3.16,8,6.18,12.21,9,3.81,2.52,7.67,4.8,11.93,1.77,4.61-3.29,8.39-8.93,12.19-13.12q6.72-7.38,13.43-14.75C127,173.7,125.72,169.62,122.16,168.29Z" transform="translate(-1.39 -0.64)"/><path class="cls-2" d="M439.33,108.5l-2.4-21.84c-.59-5.44.06-13.67-3.35-18.23-4.7-6.3-12.4-3.67-15,1.75a5.1,5.1,0,0,0-3.43.37c-3.58,1.67-3.83,4.86-5.14,8.15-1.44,3.62-4.44,6.38-7.13,9.09-5.63,5.66-10.93,12.11-10.49,20.53a4.9,4.9,0,0,0-.77,1.87,254.91,254.91,0,0,1-19.74,59.15c-2.35,4.92,3.54,9.32,7.06,6.95a13.91,13.91,0,0,0,2.5,7.11c3.23,4.62,7.7,8.53,11.27,12.9,3.84,4.7,6.85,10.13,10.75,14.72,3.38,4,7.73,3.72,11.61.51a58.41,58.41,0,0,0,18-27.72c3.35-12.09,6.28-24.45,7.67-36.93C442.24,134,440.74,121.31,439.33,108.5Z" transform="translate(-1.39 -0.64)"/></g><g id="fill_mouth"><path class="cls-3" d="M334.32,351.7a2.56,2.56,0,0,1-.66-2.25,7.84,7.84,0,0,0-4-3.13,133.11,133.11,0,0,0-56-48.93c-6.53-3-13.27-5.22-20-7.69s-12.2-6.88-18.74-9.58c-7.27-3-15.48-2.13-23.18-2.06-7.31.07-15.35-.44-21.52,4.18l-.35.29a8.23,8.23,0,0,0-5.41,1.13,50.86,50.86,0,0,0-9.51,7.53,120.65,120.65,0,0,1-21.85,12.55c-4.45,2-5.29,6.38-3.94,10.17-2.22,1.34-4.47,2.63-6.67,3.93-5.8,3.41-11.63,6.55-18.09,8.5-9.94,3-7.67,17.05,2.39,17.68l.48,0a7.08,7.08,0,0,0,3.16,2.9c6.61,3.1,13.3,4.11,20.43,4.62,4.84,1.48,9.76,2.67,14.7,3.74,10.56,2.3,21.17,4.37,31.76,6.54a10.81,10.81,0,0,0,2.22.21A65.23,65.23,0,0,0,223,364.45l1.69.22.38.05c4.34.89,8.69,1.74,13.06,2.45a241.67,241.67,0,0,0,70.28,1.14c4.7-.62,9.54-1.16,13.16-4.58l2.53-.26a9.59,9.59,0,0,0,2.47.32c6.87,0,9.66-6.34,8.38-11.49C334.7,352.11,334.51,351.9,334.32,351.7Z" transform="translate(-1.39 -0.64)"/></g><path class="cls-4" d="M172.18,106.21a2.76,2.76,0,0,0-.22-1c-9.49-23-34-31.25-56.56-35.79-24.15-4.87-49.16-8-73.74-4.81A115.85,115.85,0,0,0,3,76.59a2.57,2.57,0,0,0-1.41,3,2.88,2.88,0,0,0,.59,2.91,146.06,146.06,0,0,1,21.69,32.11,140.42,140.42,0,0,1,7.5,18.18c2.13,6.4,3.47,13.06,5.79,19.4,4.27,11.7,13.17,21.6,21.2,30.91C66.66,192.75,76,201.62,87.07,208c3.35,1.94,6.38-3.25,3-5.18-11.25-6.48-20.43-15.62-28.78-25.46-8.62-10.17-16.71-20.06-20.39-33.09-3.41-12.11-7.26-23.81-13.06-35A149,149,0,0,0,11.91,85a140.23,140.23,0,0,1,23,7.17A135.13,135.13,0,0,1,48,98.42c2.15,1.17,4.75,2.31,6.56,4s2.27,4,3.22,6.1c3.32,7.23,10.82,9.22,17.63,11.92a49.92,49.92,0,0,1,21.67,16.91c2.09,2.86,6.72.49,5.55-2.36a13.31,13.31,0,0,0,5.09-1.16c3.95-1.73,5.87-5.69,9.73-7.59a129.48,129.48,0,0,1,14.83-5.87c9.51-3.27,18.17-4.22,27.81-.86C167.69,122.14,175.16,113.19,172.18,106.21Z" transform="translate(-1.39 -0.64)"/><path class="cls-4" d="M311.58,307.11l0,.11v0Z" transform="translate(-1.39 -0.64)"/><path class="cls-4" d="M311.51,306.73c0,.13.05.26.07.38C311.55,307,311.53,306.86,311.51,306.73Z" transform="translate(-1.39 -0.64)"/><path class="cls-4" d="M111.49,341.65l2.39,1.13,3.23,1.2.09-.36-5.55-2.68C111.6,341.18,111.54,341.41,111.49,341.65Z" transform="translate(-1.39 -0.64)"/><path class="cls-4" d="M426.29,292.93c14.07-13.11,27.4-28,29.83-47.78a3,3,0,0,0-2.2-2.89,75.55,75.55,0,0,1-32.85-18.64c-2.08-2-4-4.21-5.88-6.43,30.25-31,33.3-77.81,27.42-118.75-2.13-14.81-5.29-29.46-8.45-44.08a2.55,2.55,0,0,0-2.84-2.1c-12.77-.74-25.27,2.21-37.19,6.6q-2.24.82-4.46,1.7a9.75,9.75,0,0,0-7.44,2.59c-.27.23-.52.5-.77.76-7.18,3.08-14.26,6.44-21.17,10-20.66,10.61-40.2,24.61-52.54,44.7a77.71,77.71,0,0,0-10.43,27.13c-.27,0-.54-.08-.81-.1a2.73,2.73,0,0,0-1.2.12c-12.53-1.1-24.76,3.93-37.29,4.18-13.75.28-27.52-.25-41.23,1.17s-26.82,4.78-40.24,7.41c-13,2.56-26.51,1.92-38.71,7.77a10.55,10.55,0,0,0-5.15,5.8,13.27,13.27,0,0,0-8.41,1.45l-.12.08a3.06,3.06,0,0,0-3,.51,139.17,139.17,0,0,0-28.21,30.23l0,0-1.08-.81a3.45,3.45,0,0,0-2.31-.3,3,3,0,0,0-2.1,3.69l.3.72a3,3,0,0,0,1.08,1.07l.9.67c-1.52,2.43-3,4.91-4.33,7.44-4.45,8.28-7.53,17.78-14.24,24.61a34.17,34.17,0,0,1-25.18,10c-2.5,0-3.44,2.54-2.59,4.52a56.33,56.33,0,0,0,14.3,19.91c2.64,2.35,5.85,4.61,7.56,7.79.89,1.66,1.28,3.24.34,5-.52,1-2.39,3.15-3.68,2.07-2.42-2-5.45-.07-5,2.92.8,5.53,3.63,10.25,7.33,14.42a13.78,13.78,0,0,0,4,4c3.66,3.36,7.69,6.34,11.32,9.1a202.37,202.37,0,0,0,31.29,19.39l6.46,3.13c1.81.84,3.63,1.65,5.46,2.45s3.74,1.48,5.6,2.33l.58.27a299.43,299.43,0,0,0,63.27,17.43c30.29,5,61,6.48,91.66,7.06,7.34.14,14.71.4,22-.35a77,77,0,0,0,20.46-5.22l2.77-1.1a37.39,37.39,0,0,1,6.94-2.78l.35-.25c1.7-1.07,3.65-1.35,5.51-2,.9-.32,1.74-.81,2.65-1.15a24.38,24.38,0,0,1,2.65-.78c1.39-.35,2.71-.9,4.06-1.33a103,103,0,0,1,17.65-5.55c.59-.21,1.16-.44,1.74-.66l.79-.33c1.45-.6,3.42-1.38,5.05-2.08s3.31-1.66,5-2.34c1.39-.55,2.82-1,4.2-1.57v0a208.37,208.37,0,0,0,57.73-40.1,3,3,0,0,0,0-4.24A31.83,31.83,0,0,0,426.29,292.93ZM99.47,302.51,97.17,301c.13-.21.27-.42.39-.64.37-.7.7-1.42,1-2.14a9.62,9.62,0,0,1,1,.92,62.15,62.15,0,0,1,4.47,5.64c.17.25.36.48.54.71A31.14,31.14,0,0,1,99.47,302.51Zm51-114.64c4.18-2,9.29-2,13.83-2.48,2.91-.28,5.8-.64,8.69-1a4,4,0,0,0,.11.58,4.84,4.84,0,0,0,.79,1.61l-12.55,4.8c-3.22.77-6.48,1.43-9.75,2-.15,0-3,.4-2.71.39l-.43,0-.06-.05a29,29,0,0,0-2-4.5A15.68,15.68,0,0,0,150.46,187.87Zm-7.26,51.51a85.23,85.23,0,0,1,1.13-8.74c.08-.19.14-.36.19-.52l.39-.44c1.27-1,2.45-2.07,3.73-3,4.31-3.29,9.3-7.13,14.81-7.94s11.53,1.43,16.47,3.51c5.87,2.46,8.37,6.12,11.6,11.39l.83,1.35a57.6,57.6,0,0,0,1.41,13.54,27.87,27.87,0,0,0,1.27,4.1,83,83,0,0,0-31.25,12.89c-5.08,3.38-10,7-14.83,10.77-.52-5.58-2.91-10.86-4.2-16.56A74.43,74.43,0,0,1,143.2,239.38ZM316.51,364.67c-6.95,2.06-14.1,2.59-21.31,2.63a657.62,657.62,0,0,1-87.27-4.89c-27-3.47-53.68-9.61-78.84-20-3.49-1.44-6.92-3-10.33-4.66,4.74-1.67,8.72-5.26,13.07-8.39,6.65-4.79,14.19-8.17,19.95-14.15,3.11-3.24,5.81-6.85,9-10.06s6.43-6.08,9.82-8.93c7.22-6.05,14.11-12.13,23.57-14.15,8.64-1.84,18.54-3.15,27.35-2.09,9.54,1.15,19,6.2,27.75,10,16.42,7,32.06,15.56,46,26.84a174.82,174.82,0,0,1,37.33,41.8l0,.05C327.27,360.75,322,363.05,316.51,364.67Zm79.38-172.54a118.33,118.33,0,0,0-23.46-20.61c5.83-6.82,11.48-14,14.42-22.54,2.18-6.34,2.41-12.95,2.69-19.57.29-3.21.39-6.35.67-9.46.12-1,.26-2,.44-3.06,2-11.38,10-19.9,16.86-28.71l7.65-9.78c.79-.86,1.58-1.71,2.35-2.57A10.7,10.7,0,0,0,419.36,73c2.63-3.44,5.78-7.4,10.37-7a2.52,2.52,0,0,0,.79-.09c8.63,40.88,15.73,85-3.44,123.86a91.21,91.21,0,0,1-15.73,22.58C406.17,205.67,401.44,198.57,395.89,192.13Z" transform="translate(-1.39 -0.64)"/></g><g id="face"><path class="cls-3" d="M183.12,193a13.18,13.18,0,0,0-7-8.83.87.87,0,0,0-.53-.33c-.24-.06-.48-.09-.73-.15l0,0h-.08a41.53,41.53,0,0,0-25.46,2.57c-3.92,1.72-8.26,4.1-10.66,7.78a14.32,14.32,0,0,0-2,6,20.92,20.92,0,0,0-.2,6.65c.89,4.43,5.68,3.31,8.65,2a31.93,31.93,0,0,1,28,.5c1.85.89,4.1,2.65,6.25,2.47a4,4,0,0,0,3.21-2.92,28.87,28.87,0,0,0,1.17-7.4A24.56,24.56,0,0,0,183.12,193Z" transform="translate(-1.39 -0.64)"/><path class="cls-3" d="M311.05,188.36c-1.36-6-5.59-11.31-8.85-16.43-.71-1.11-2.45-.13-1.85,1-9.69-3.63-20.2-.72-28.9,4.36A55.52,55.52,0,0,0,266,180.8a5.22,5.22,0,0,0-2,1.7,16.35,16.35,0,0,0-3.61,4.72A31.11,31.11,0,0,0,258,194.9a15.17,15.17,0,0,0,0,7.6c1.43,4.37,5.93,6.59,10,4.12s5.62-8.56,10.54-10c5.17-1.51,10.37,2.14,14.88,4.1,4.3,1.87,9.67,3.29,13.79.22C311.09,198.1,312.06,192.81,311.05,188.36Z" transform="translate(-1.39 -0.64)"/><path class="cls-3" d="M138.66,295.25c-1.07-4.67-6.72-7.05-10.35-9.41a31.45,31.45,0,0,0-6.56-3.71,22.4,22.4,0,0,0-7.82-.78l-17.68.39c-2.24.05-5.25-.34-7.13,1.21-2.21,1.83-1.53,4.91-1.23,7.39q.56,4.59,1.22,9.17c.17,1.16.36,2.31.54,3.47a1.9,1.9,0,0,1,.31.42,20.36,20.36,0,0,0,1.2,2.32,3.26,3.26,0,0,0,.41.42,2.66,2.66,0,0,1,.51.6l.15.35a.47.47,0,0,1,.18.19c.68,1.25,2.17,1.6,3.4,2.08.84.33,1.67.65,2.48,1a12.09,12.09,0,0,0,2.45,1,.46.46,0,0,1,.35.42c4.75.57,9.48,1,14.19,2q4.18.89,8.3,2.08c2.37.69,5,2,7.5,2.15,4,.19,6.15-3.65,6.9-7.1a51.35,51.35,0,0,0,.85-7.73A29.23,29.23,0,0,0,138.66,295.25Z" transform="translate(-1.39 -0.64)"/><path class="cls-3" d="M121.14,319.4c-2.67-1.12-5.4-2.13-8.15-3A118.8,118.8,0,0,0,95.55,312c-1.8-.3-5.16-1.42-5.93,1.08-.65,2.12,1.62,4,2.9,5.31A73.63,73.63,0,0,0,107.07,330a1.34,1.34,0,0,0,1.58-.08,1.45,1.45,0,0,0,1.65.78,35.23,35.23,0,0,0,7.74-2.59c1.92-.91,4.71-2.07,5.64-4.14S123,320.19,121.14,319.4Z" transform="translate(-1.39 -0.64)"/><path class="cls-3" d="M373.89,324.9c-1.16-1.23-3.23-1.15-4.78-1.24a62,62,0,0,0-12.62.76c-4.28.64-8.53,1.53-12.77,2.36-3.3.65-7.28.86-10.24,2.6-3.52,2.08-2.83,5.61-1.18,8.72s3.46,6.51,5.19,9.75a2.76,2.76,0,0,1,.37.31,13.72,13.72,0,0,0,1.28,1.25l.36.22h0a5.3,5.3,0,0,0,.69,0,8.24,8.24,0,0,0,1-.24,1.94,1.94,0,0,1,.32-.32h0c5-4.06,10.93-6.7,16.72-9.42a98.35,98.35,0,0,0,9.18-4.75c2.41-1.46,6.44-3.53,7.23-6.48A3.73,3.73,0,0,0,373.89,324.9Z" transform="translate(-1.39 -0.64)"/><path class="cls-3" d="M386.42,299.36c-1.52-4.82-5.52-8.51-10-10.53-5.6-2.51-11.85-2.32-17.78-1.24-6.94,1.27-13.75,3.46-20.56,5.3-5.68,1.55-12.41,2.53-17.05,6.44s-6.12,10.19-4.94,15.82,4.92,10,9.49,13.13l.29.05a2.78,2.78,0,0,0,2,.8,2.91,2.91,0,0,0,1.7-.51l.06,0c10.37-6.23,22.32-9,34.21-10.77,6-.88,12.37-1.44,17.59-4.77A11.74,11.74,0,0,0,386.42,299.36Z" transform="translate(-1.39 -0.64)"/><path class="cls-5" d="M281.94,331.26a33.38,33.38,0,0,1-22.26,6.22c-8.74-.7-15.85-6.22-24.37-7.76a51,51,0,0,0-24.66,2.08c-8,2.58-16,7-24.6,7.08-7.13.09-15.49-3.42-17.15-11-.41-1.88-3.3-1.08-2.89.8,1.48,6.79,7.65,11.11,14.13,12.58,8.24,1.87,16.34-1,24-3.9,8-3,16-5.48,24.56-5.28,1.65,3,3.28,6.06,4.85,9.13q1.28,2.47,2.5,5c.68,1.37,1.25,3.19,2.44,4.23a2.66,2.66,0,0,0,3.88-.27c.89-1.07.94-2.53,1.24-3.83.56-2.48,1.49-5.13,3.78-6.5A1.44,1.44,0,0,0,248,339l0-.06a6.66,6.66,0,0,0,.31-.73l.09-.26,0-.1.09-.15a37.11,37.11,0,0,0,8.92,2.55,36.08,36.08,0,0,0,25.95-6.39C285,332.73,283.51,330.13,281.94,331.26Zm-40.56,11.82a22.36,22.36,0,0,0-.93,3.62c0,.15-.2.63-.29,1l-.12-.18c-1.58-2.88-2.92-5.91-4.42-8.83-1.11-2.14-2.27-4.27-3.42-6.39A42,42,0,0,1,245,336.15l1.15.52a.69.69,0,0,0-.17.17.31.31,0,0,0-.06.13,1.28,1.28,0,0,0-.07.21h0A10.83,10.83,0,0,0,241.38,343.08Z" transform="translate(-1.39 -0.64)"/><path class="cls-5" d="M242.36,296.83A22,22,0,0,0,237,294a43.58,43.58,0,0,0-12.25-2.24,121.71,121.71,0,0,0-13.23-.26c-9.81.39-19.74,2.4-27.91,8.09a1.59,1.59,0,0,0,.17,2.68,1.45,1.45,0,0,0,.52.75,149.73,149.73,0,0,0,12.69,8.62c4,2.44,8.31,5.24,12.84,6.64,9.37,2.88,18.31-4.92,25.58-9.69l6.09-4c1.36-.89,3.73-1.85,3.85-3.75S243.61,297.74,242.36,296.83Z" transform="translate(-1.39 -0.64)"/><g id="eyes"><path class="cls-5" d="M201.6,247.35c-.52-14.72-12.3-26.15-25.28-31.39a50.54,50.54,0,0,0-23.27-3.42c-7.5.68-15.18,2.59-20,8.75-5.44,6.91-7.2,16.13-8.21,24.64-1.2,10.13-1.78,20.35-2.62,30.52a1.32,1.32,0,0,0,.06.5c-1.22.53-1.53,2.53,0,2.77a121.55,121.55,0,0,0,51.11-3.27c7.44-2.13,15.86-4.65,21.4-10.36A25.73,25.73,0,0,0,201.6,247.35Z" transform="translate(-1.39 -0.64)"/><path class="cls-5" d="M328.63,268.13a141.18,141.18,0,0,0-2-16.76c-.87-5.17-1.57-10.48-3.66-15.33-2-4.53-5.27-8.22-8.75-11.65-.26-.26-.54-.52-.8-.79a47.25,47.25,0,0,0-5.71-5.52l-2.42-2.33c1.2-.34-2.27-3.89-3.79-4.4-8.72-2.88-14.25-2.49-23.41-1.66a67.61,67.61,0,0,0-13.37,2.56c-4.1,1.24-8.38,2.76-11.79,5.41s-5.07,6.17-6.22,10.11A84.52,84.52,0,0,0,244,241.13c-1.11,9.08-.6,18.6,2.82,27.17,3,7.38,8.19,13.9,16.2,15.89,4.41,1.09,9.08,1.06,13.6,1,4.89,0,9.79-.26,14.68-.39,9.76-.28,19.65-.21,29.08,2.64,1.72.52,3.56,1.13,5.15-.08s1.8-3.05,2.14-4.73A60.46,60.46,0,0,0,328.63,268.13Zm-19.87-6.36a6.14,6.14,0,0,0,.42-.47C309.47,262.35,309.33,262.51,308.76,261.77Z" transform="translate(-1.39 -0.64)"/></g><path class="cls-3" d="M190.43,234.84a6.47,6.47,0,0,0-.79-1.43c-7.81-10.57-28.49-12.17-38.28-3.29-6.2,5.62-7.63,14.11-7.37,22.07s2.16,15.63,10.36,18.68c14.61,5.44,31.42-.73,38.41-14.93C196.12,249.12,195.72,240.59,190.43,234.84Z" transform="translate(-1.39 -0.64)"/><path class="cls-3" d="M306.33,232.51c-4.24-4.35-11.18-7.08-17.73-7.16a6.15,6.15,0,0,0-2.27-.15c-8.31,1-16.56-1.62-23.84,3.94s-9.65,16.31-8.83,25a28.92,28.92,0,0,0,38.66,24.32c8.8-3.21,16.16-10,18.26-19.36C312.4,251,312.46,238.8,306.33,232.51Z" transform="translate(-1.39 -0.64)"/><path class="cls-3" d="M146.54,220.22a5.5,5.5,0,0,0-3-2.3,5.24,5.24,0,0,0-3.5.34,6.79,6.79,0,0,0-5.34,3.7,7.61,7.61,0,0,0-.88,5.47,6.24,6.24,0,0,0,4.43,4.11,7.6,7.6,0,0,0,8-2.71,7.34,7.34,0,0,0,1.52-4.47A7.25,7.25,0,0,0,146.54,220.22Z" transform="translate(-1.39 -0.64)"/><path class="cls-3" d="M302.62,213.59a4.8,4.8,0,0,0-3.13-2.32,3.61,3.61,0,0,0-1.3-.14h-.05a4.6,4.6,0,0,0-1,.11,9.58,9.58,0,0,0-3.47,1.07,7.32,7.32,0,0,0-3,3.12,7.09,7.09,0,0,0,0,6.36,6.47,6.47,0,0,0,3.86,3.2,7.18,7.18,0,0,0,8.16-3A8.37,8.37,0,0,0,302.62,213.59Z" transform="translate(-1.39 -0.64)"/></g><g id="skull"><g id="fill_back"><path class="cls-6" d="M160.34,134.47a3,3,0,0,0-2.2-2.9c-1.79-.37-3.3.5-4.7,1.55-.83.19-1.68.33-2.4.53-1.75.49-3.53.93-5.24,1.53-2.28.8-5.37,2-6.06,4.59a3,3,0,0,0,.62,2.73,3.2,3.2,0,0,0,.33,1c1.66,3.11,6,1.74,8.47.44,2.6-1.37,4.61-3.7,7-5.47C158.26,137.91,160.15,137.1,160.34,134.47Z" transform="translate(-1.39 -0.64)"/><path class="cls-6" d="M286.24,97.54c-1.36-2.31-3.56-3.59-5.94-4.68-5.14-2.36-10.89-6.92-16.92-5.92s-9.37,7.2-12.73,11.77c-5.13,7-10.07,14.52-16.61,20.24-2.92,2.54,1.34,6.77,4.24,4.24l1.05-1a1.54,1.54,0,0,0,.3,0c5.53.28,10.89-2,16-3.76,5.73-2,11.4-4.15,17.21-5.93,3.16-1,8.63-1.72,10.86-4.66a15.56,15.56,0,0,0,3.61-1,3,3,0,0,0,1.49-2.59C289.08,102.21,287.32,99.39,286.24,97.54Z" transform="translate(-1.39 -0.64)"/></g><g id="fill"><path class="cls-7" d="M428.91,24.89c-2,.55-3.9,1.29-5.92,1.66s-4.26.72-6.39,1.05a1.71,1.71,0,0,0-1.14.85A11,11,0,0,0,405.83,31c-3.9,3.32-9.57,4.67-14.26,6.46q-8.46,3.24-16.85,6.64c-5.58,2.27-11.18,4.51-16.66,7a67.78,67.78,0,0,0-8.1,4.1,31,31,0,0,1,2.58-7.42c3-5.7,5.89-11.43,8.61-17.26A9,9,0,0,0,362,29a48.87,48.87,0,0,0,1.87-4.64,8.59,8.59,0,0,0,.29-4.4c.05-.15.09-.3.14-.46a8.66,8.66,0,0,0-1.63-8.65,2,2,0,0,0,.11-1.31s0-.06,0-.1a4.72,4.72,0,0,1,0-.84c.25-1.49.72-3.53-.86-4.36a2.23,2.23,0,0,0-2.36.12c-.21.14-.41.29-.62.42a9.9,9.9,0,0,1-1.12.58,8.16,8.16,0,0,1-.95.32,2.06,2.06,0,0,0-1.2.92,2.21,2.21,0,0,0-.23.64,11.15,11.15,0,0,0-5.83,1c-4.95,2.33-10.09,5.51-15.33,7.08-2.37.71-4.91.43-7.32,1-2.93.66-5.48,2.23-8.1,3.59a56.33,56.33,0,0,1-6.4,2.38c-2.12.8-4,2.21-6.09,3-4.8,1.79-8.72,2.61-12.05,5.9-1.84.63-3.72,1.19-5.52,2a25,25,0,0,0-11.08,9,7.62,7.62,0,0,0-1.1,2.39,23.65,23.65,0,0,0-5.34,6,21,21,0,0,0-1.94,4.29,7.22,7.22,0,0,0-.35,1,8.79,8.79,0,0,0-3.91,7.7,104.39,104.39,0,0,0-22.92,4.22c-14.08,4.39-28.21,10.74-39.76,20-9.82,7.88-17.82,17.89-29.46,23.23a7.07,7.07,0,0,0-1.55,1h-.06c-.71.11-1.42.22-2.12.39-1.11,0-2.25-.29-3.32-.3-.24,0-.49,0-.73,0L165,112a1.91,1.91,0,0,0-1.73-.34h0a11.74,11.74,0,0,0-8.82-3.74l-1.76.06c-2.61-2.7-6-3.83-9.51-5.31,0-.08,0-.16-.06-.25a6.61,6.61,0,0,0-2.76-3.58l-1.43-.61a6.15,6.15,0,0,0-1.1-.18,25,25,0,0,1-1.77-3.2A5.1,5.1,0,0,0,133,92c-.94-4.3-6.28-7.48-9.84-3.23a49.49,49.49,0,0,0-6.6,9.17c-1.71,3.4-2.67,7-4,10.55-2.86,7.39-7.82,12.94-8.3,21.18a6.79,6.79,0,0,0,0,1.12,5.82,5.82,0,0,0-.37,1.41c-.82,5.58-1.52,11.31-.63,16.92a23.92,23.92,0,0,0,2.56,7c1.28,2.61,1.12,5.72,1.33,8.61.55,7.27,11.43,7.68,12,1.07a4.8,4.8,0,0,0,3.75-4.2l.24-1.46c1.39-.25,2.76-.74,4.27-1a14.32,14.32,0,0,1,9,2c4.21,2.32,8.13-.81,8.88-4.4a4.42,4.42,0,0,0,.88-1,6.5,6.5,0,0,0,1.14-1c.58.1,1.07-.46,1.57-.68a7,7,0,0,1,2.53-.42h.95a5.38,5.38,0,0,0,4.75,3.24,6.56,6.56,0,0,0,5.5,3.42c3.33,0,5.3-2.39,5.89-5.33a4.25,4.25,0,0,0,1.15-.61c1.52-1.16,4.55-3.08,6.25-2.8,1,.17,2.07,1,3.14,1.21l.9.2c.24.45.48.9.68,1.38,1.35,2.94,5.61,3.67,8.21,2.15a5.71,5.71,0,0,0,2.85-5.49c2.11-.07,4.22-.24,6.31-.48a5.38,5.38,0,0,0,5.71,4.79,11.18,11.18,0,0,0,7.34-2.36c1.85-1.57,2.8-4,4.65-5.54a11.23,11.23,0,0,1,3.28-1.8l2.12-.07a8.58,8.58,0,0,0,1.75,1.48c1.12.7,2.27,1.36,3.42,2a5.79,5.79,0,0,0,10.34,1.33c2.34-1.54,4.69-3.26,7.37-4.07a29.08,29.08,0,0,1,3.1-.72c0,.32.08.64.14,1,.55,3.1,4.49,5.13,7.38,4.19a6,6,0,0,0,4.31-6l.15,0a23.26,23.26,0,0,1,8.07-.29,7,7,0,0,0,1.61,2.45,7.06,7.06,0,0,0,.93.79,5.39,5.39,0,0,0,1,1.3,6.13,6.13,0,0,0,4.24,1.76,6.06,6.06,0,0,0,4.25-1.76,6.5,6.5,0,0,0,1.73-3.49l2.52.19a5,5,0,0,0,4.88-2.28,40.68,40.68,0,0,1,4.72,1c.13,0,.26,0,.39,0a.43.43,0,0,0,0,.16.82.82,0,0,0,.36.42,7.73,7.73,0,0,0,1.37.71,3.52,3.52,0,0,0,1,.31,3.75,3.75,0,0,0,.82,0,.42.42,0,0,0,.17,0,.49.49,0,0,0,.47-.63c0-.33.06-.66.11-1a10.14,10.14,0,0,1,.29-1.21,17.23,17.23,0,0,0,.44-2.23,5.27,5.27,0,0,0,.56-2.05,1.83,1.83,0,0,1,.08-.25,2.29,2.29,0,0,0,.1-.23s0-.08,0-.12l.36-1.15a.28.28,0,0,0,0-.09,69.57,69.57,0,0,0,3.65-8,34.64,34.64,0,0,1,3.88-8.73,6,6,0,0,0,.86-1.82c.11-.16.22-.31.32-.48a117.41,117.41,0,0,1,7.45-10.18c2.55-3.38,5.73-5.65,8.54-8.78a6.35,6.35,0,0,0,.84-1.17l.36-.26c4.31-3.49,8.91-6.61,13.34-9.93,1.33-1,2.53-2.23,3.89-3.13,2.05-1.35,3.94-1.93,5.67-3.82a7,7,0,0,0,.69-.31c5.05-2.62,10.16-5.15,15.17-7.87,2.33-1.27,4.52-2.68,6.75-4a7.07,7.07,0,0,0,1.39-.46c10.88-5,22.4-8.08,33.34-12.8.23,0,.46-.07.69-.11s.5-.12.75-.19l.36-.1.16,0,.2,0a1.22,1.22,0,0,0,.48-.18c2.81-.43,5.61-.91,8.37-1.61.51.17,1-.11,1.55-.19l.12,0h0a4.9,4.9,0,0,0,.54,0c.22,0,.43-.05.64-.09l.26,0h0a.43.43,0,0,0,.3-.11h0a.51.51,0,0,0,.18-.69.53.53,0,0,0-.53-.23l-.21-.11a.67.67,0,0,0-.12-.06A5.92,5.92,0,0,0,421,45.5a7.59,7.59,0,0,0-.4-1A8.82,8.82,0,0,0,422.84,39a2,2,0,0,0,1.37-1.19l0,0,.15-.26a3.77,3.77,0,0,1,.26-.39c.22-.31.45-.6.67-.9h0l.13-.18.34-.42c.25-.32.51-.63.77-.94,1-1.24,2.64-2.59,2.67-4.34a10.39,10.39,0,0,0,1.93-2.49A2,2,0,0,0,428.91,24.89ZM158.73,137.46c-.25.95-1.2,2-1.6,3a3.59,3.59,0,0,1-.12.35l-.23.06a6.38,6.38,0,0,0-3,1.91,6.29,6.29,0,0,0-3.81,3.52.41.41,0,0,0-.44.14c-.35.38-1,.31-1.43.42a2.13,2.13,0,0,0-.63.25,5,5,0,0,0-1.7-1.5,6.14,6.14,0,0,0-4.63-.61l-.36.11a7.75,7.75,0,0,0-2.09-.74,6.18,6.18,0,0,1-.36-.53c0-.11,0-.23,0-.39.08-1,.06-2.1.08-3.14a5,5,0,0,0-.2-1.49c.91-.73,1.79-1.49,2.67-2.27,2.29-2.05,1.56-2,3.7-2.69,3.11-1,6.64-.83,9.86-.94a13.32,13.32,0,0,0,7-2.29,14.27,14.27,0,0,0,.6,3A5.38,5.38,0,0,0,158.73,137.46Zm128.82-31.2a9.72,9.72,0,0,0-2.63,3.61,11.83,11.83,0,0,0-3.07.21c-6.15,1.2-11.22,3.77-16.93,6.17-5,2.11-10.3,3.79-15.5,5.53-1.78.37-3.58.71-5.4,1q-5.07.78-10.15,1.43a2.83,2.83,0,0,0-1.43-1.83.43.43,0,0,0,0-.05c1.58-6.55,5.81-10.88,10-16L258,87.38a12.55,12.55,0,0,0,1.31-1.95,19.94,19.94,0,0,0,6.18,1.07,18.39,18.39,0,0,1,7.71,1.77c2.57,1,6.35,1.81,8.52,3.53,1.3,1,2,2.94,2.82,4.37a9.27,9.27,0,0,0,4.41,4.25C289.24,102.64,289.38,104.63,287.55,106.26Z" transform="translate(-1.39 -0.64)"/><path class="cls-8" d="M419.5,51.5" transform="translate(-1.39 -0.64)"/></g><g id="fill_teeths"><path class="cls-1" d="M138.63,163.77c-.18-1.33-1.6-2.41-2.69-3a8.58,8.58,0,0,0-3-1.06,9,9,0,0,0-7.08,2c-1.11.86-2.13,1.82-3.17,2.76a2.62,2.62,0,0,0-1,2.61,2,2,0,0,0,1.39,1.51c.29,1.53,1.58,2.72,2.56,3.86l3.43,4c1.17,1.36,3.39.21,3.41-1.42v-.08a1.21,1.21,0,0,1,.05-.14,7.08,7.08,0,0,1,.38-.66,9.77,9.77,0,0,0,.79-1.46c.48-1.11.74-2.29,1.15-3.43a4.36,4.36,0,0,1,1.45-1.9C137.51,166.38,138.87,165.51,138.63,163.77Z" transform="translate(-1.39 -0.64)"/><path class="cls-1" d="M162.1,161.08c-1.23-1.28-2.95-1.65-4.36-2.65a20,20,0,0,0-2.07-1.48,7.24,7.24,0,0,0-3.22-.84,6.63,6.63,0,0,0-3.06.45,5.48,5.48,0,0,0-2,2,11.18,11.18,0,0,1-3.32,3.32,2.07,2.07,0,0,0,.74,3.74,1.88,1.88,0,0,0,1.64,1.92,12.29,12.29,0,0,0,2.64,2.92,9.34,9.34,0,0,1,1.88,1.94,4.53,4.53,0,0,0,2.69,2.23,2,2,0,0,0,2.53-1.93,14.56,14.56,0,0,1-.08-2.09,2.37,2.37,0,0,0,1.15-.88,6.86,6.86,0,0,0,.77-1.37l.33-.43,1.42-1.86a1.42,1.42,0,0,0,.28-.81,14.76,14.76,0,0,1,1.66-1A2,2,0,0,0,162.1,161.08Z" transform="translate(-1.39 -0.64)"/><path class="cls-1" d="M178.58,153.74c-2.71-.81-6-.57-8.22,1.35a6.12,6.12,0,0,0-1.94,3.37c-.32,1.81.76,3,2,4.17.49.47,1,.92,1.44,1.42l.25.29.08.09.07.11c.17.27.32.54.46.82s.05.11,0,0l.19.51c.11.29.22.58.34.86a7.12,7.12,0,0,0,1.37,2.25,2,2,0,0,0,2.83,0,2,2,0,0,0,.52-1.84,2.73,2.73,0,0,0,.52-.82,3.55,3.55,0,0,0,.12-2l0,0a9.72,9.72,0,0,1,.78-.66l1.62-1.27a5.56,5.56,0,0,0,1.74-1.67C184.32,157.62,181.32,154.55,178.58,153.74Z" transform="translate(-1.39 -0.64)"/><path class="cls-1" d="M200.74,155.06a8.85,8.85,0,0,0-3.11-2.88,4.9,4.9,0,0,0-4.7.07,14.93,14.93,0,0,0-3.25,3.43,11.63,11.63,0,0,0-1.54,2,2.76,2.76,0,0,0,.38,3.29l0,0c0,.12-.09.23-.12.35a2,2,0,0,0,2.14,2.5c.34,1.38.69,3.27,1.86,4.18a2.26,2.26,0,0,0,3-.16,2.41,2.41,0,0,0,.65-1.73c0-.14,0-.29,0-.43s0-.35.05-.41a6.66,6.66,0,0,1,.19-.77c0-.14.09-.28.14-.41a1.09,1.09,0,0,1,.05-.14l.05-.09A9.09,9.09,0,0,1,197,163l.23-.37a3.58,3.58,0,0,0,.24-.33,19.25,19.25,0,0,1,2.75-2.74,3.54,3.54,0,0,0,1.32-1.82A3.07,3.07,0,0,0,200.74,155.06Z" transform="translate(-1.39 -0.64)"/><path class="cls-1" d="M230.88,153.64a2.61,2.61,0,0,0-1.8-1.8c-.53-.17-.68-.15-1-.43a13.71,13.71,0,0,0-3.25-2.67c-2.67-1.27-6.09-2.24-8.91-.94s-3.25,4.56-5,6.9a2,2,0,0,0,.72,2.74,1.55,1.55,0,0,0,.4.17,1.9,1.9,0,0,0,1.8,2.11l.09.21,3.63,8.4c.6,1.38,2.81,1.23,3.45,0l2.34-4.49c.72-1.39,1.38-2.84,2.21-4.17a7.55,7.55,0,0,1,2.73-2.14C229.61,156.71,231.32,155.38,230.88,153.64Z" transform="translate(-1.39 -0.64)"/><path class="cls-1" d="M249.82,150.62a5.21,5.21,0,0,0-2.24-3.12,9.57,9.57,0,0,0-.83-.95c-1.24-1.26-3.57-1.66-4.79-.13a2.69,2.69,0,0,0-.41.73,17.42,17.42,0,0,0-3.9,3.57c-1.44,1.52-3.12,3.75-1.55,5.83a2.64,2.64,0,0,0,.94.79,13.21,13.21,0,0,0,1.67,3.47q1.28,2.1,2.61,4.15a2,2,0,0,0,3.45,0c1.09-1.68,2.11-3.39,3.06-5.15a40.9,40.9,0,0,0,2.71-5.52A4.06,4.06,0,0,0,249.82,150.62Z" transform="translate(-1.39 -0.64)"/><path class="cls-1" d="M271.4,149.78l-.31-.1-.27-.15a3.35,3.35,0,0,1-.44-.29l-.1-.08c-.51-.46-1-1-1.47-1.47a9.4,9.4,0,0,0-4-2.78,5.11,5.11,0,0,0-4.95,1.23,35.73,35.73,0,0,0-3.25,3.69,2,2,0,0,0,0,2.82,2.11,2.11,0,0,0,2,.51c.29.52.66,1,1,1.51a11.89,11.89,0,0,1,1,1.63,15.08,15.08,0,0,1,.47,1.47,8,8,0,0,0,1.88,3.6,2,2,0,0,0,3.34-.88c.26-.82.53-1.64.86-2.43,0-.07.2-.43.22-.48s.17-.34.26-.5a11,11,0,0,1,.73-1.18l.21-.24a6.25,6.25,0,0,1,.44-.45l.2-.18,0,0,.54-.33a8.45,8.45,0,0,0,2.59-1.56A2,2,0,0,0,271.4,149.78Z" transform="translate(-1.39 -0.64)"/><path class="cls-1" d="M293.51,147.63a4.27,4.27,0,0,0-3.36-2.95,10.35,10.35,0,0,0-7.66,1.66,19.05,19.05,0,0,0-3,2.76,16.76,16.76,0,0,1-1.28,1.25l-.14.1-.28.19-.35.2-.12.07s0,0-.17,0a2,2,0,0,0-1.39,2.46,2.09,2.09,0,0,0,1.67,1.47,4.11,4.11,0,0,0,1.06,2.57,17.31,17.31,0,0,1,2.58,4.25,2.11,2.11,0,0,0,1.4,1.4,2,2,0,0,0,1.94-.51c1.62-2,1.78-4.64,2.91-6.64a9.47,9.47,0,0,1,2-2.54,29.62,29.62,0,0,1,2.44-1.74A3.8,3.8,0,0,0,293.51,147.63Z" transform="translate(-1.39 -0.64)"/></g><path class="cls-9" d="M326.5-51" transform="translate(-1.39 -0.64)"/><path class="cls-10" d="M432.62,22.9c-7.44-.78-14.53,1.6-21.25,4.55-7.12,3.13-14,6.55-21.46,8.83-7.16,2.18-14.47,3.92-21.37,6.89-6.12,2.63-11.29,6.55-16.4,10.67A48.36,48.36,0,0,1,357,41.41c2.27-4,5.53-7.37,7.56-11.48,4.29-8.7.63-19.31-1.16-28.22C363.1.12,361,.44,360.6,1.7c-13.65,8.54-30,10.7-44.79,16.55a238.25,238.25,0,0,0-23.63,10.91A62.62,62.62,0,0,0,274.63,42.7a61.26,61.26,0,0,0-11.56,19.23c-1.08,0-2.16-.11-3.24-.11-11.79,0-22.86,4.59-33.56,9.09-9.44,4-18.75,8.5-26.67,15.09a62.47,62.47,0,0,0-10.47,11.5c-3.19,4.37-6.66,8.16-11.82,10.13-9.67,3.68-20.3,1.15-28.74-4.31a62.7,62.7,0,0,1-12.08-10.57c-1.77-1.94-3.32-4.11-5.15-6-1.51-1.55-3.6-2.92-5.84-2.27s-3.61,3.15-4.84,4.94a80.48,80.48,0,0,0-4.48,7.32c-2.76,5-5.07,10.33-7.33,15.61-4.38,10.26-9.31,21.39-8.3,32.82a28.79,28.79,0,0,0,1.79,7.93c1,2.5,2.52,4.81,3.23,7.41,1.09,4-.2,9.61,4.71,11.47,3.36,1.28,6.9-.52,9.4-2.93a65.39,65.39,0,0,1,5.87,4.71,25.37,25.37,0,0,1,4.69,6.72,1.52,1.52,0,0,0,2.36.3c2.08-2.19,2.09-5.44,3.41-8a35.28,35.28,0,0,1,5.09-7.06L153.66,177a1.52,1.52,0,0,0,2.51-.66c1.64-5.06,5.45-9,9.09-12.67a1.39,1.39,0,0,0,.42-1.13,5.49,5.49,0,0,0,.73-.36,15.42,15.42,0,0,1,5.22,4.39c1.39,2.07,1.75,4.54,3.45,6.44a1.5,1.5,0,0,0,2.35-.3c2.26-4.23,4.35-9.22,8.15-12.35,1.4,2.46,2.86,4.89,4.42,7.25,1,1.52,3.3,6.29,5.8,4.32.95-.74,1-2.45,1.42-3.52a22.28,22.28,0,0,1,1.9-4.12,23.74,23.74,0,0,1,5.66-6.48,9.44,9.44,0,0,0,3-.47c2.46,1.31,3.79,3.81,5,6.24a46.26,46.26,0,0,0,5.67,8.83,1.5,1.5,0,0,0,2.12,0c2.53-3,3.36-7,5.92-10.06,2.08-2.47,4.94-4.13,7.08-6.51.37.87.72,1.75,1.13,2.61a19.86,19.86,0,0,0,2.4,3.7c1.88,2.41,3.81,4.78,5.72,7.18.77,1,2.16.27,2.51-.67,2-5.45,4.08-11.09,8.1-15.42a.56.56,0,0,0,.05-.08c5.05,1.68,6.72,7.72,9.36,11.77a1.51,1.51,0,0,0,2.35.3c1.7-2,2.48-4.47,4.05-6.54a17.94,17.94,0,0,1,5-4.45,131.34,131.34,0,0,0,8.59,12.21,1.53,1.53,0,0,0,2.12,0,4.83,4.83,0,0,0,1.49-3.36,9.47,9.47,0,0,1,2.24-4.63c2.44-3.3,5-6.48,7.74-9.56a1.52,1.52,0,0,0-.31-2.29l-.06-.39a1.57,1.57,0,0,0-.38-.66l-.31-.24a1.46,1.46,0,0,0-.61-.16,1.19,1.19,0,0,0-.19-.2,11.26,11.26,0,0,0-11.28-1.7,10.57,10.57,0,0,0-4.53,3.48c-1,1.37-2.22,3.64-4.28,3.13-2.76-.68-4.78-4.17-6.86-5.92-2.29-1.92-5.2-2.95-7.92-1.19a12.35,12.35,0,0,0-3.33,3.82c-.71,1.09-1.61,3-3,3.29-1.71.37-2.87-1.83-3.71-3a8.55,8.55,0,0,0-3.65-3.25c-7.23-2.73-8.84,11.53-15.62,7.15-2.86-1.84-4.89-4.82-8.12-6.13-3.54-1.44-6.76.18-9,3-2.39,3-4.23,7.4-8.74,7.14-2.43-.14-4-1.46-5.28-3.4a5.14,5.14,0,0,0-3.83-2.7c-2.71-.16-4.52,2.43-5.92,4.38-.65.9-1.75,2.84-3,3.63a1.4,1.4,0,0,0-1.23.1l-.17.13a1.93,1.93,0,0,1-.92-.71c-1.17-1.56-1.81-3.09-3.51-4.18a9.69,9.69,0,0,0-5.13-1.45,9.14,9.14,0,0,0-8.63,5.38,14.45,14.45,0,0,1-1.35,2.9,1.64,1.64,0,0,0-.67.61,3.23,3.23,0,0,1-3.26-.07c-2.3-1.12-3.87-3.28-5.93-4.75a6.89,6.89,0,0,0-9.81,1.11c-1.49,1.69-4,7.26-6.79,5-1.89-1.53-3.36-3.1-5.78-3.86a9.33,9.33,0,0,0-6.38.22c-4.33,1.8-5.93,6.3-9,9.47-1.44,1.5-3.77,3.08-6,2.73-2.78-.45-2.84-3.71-3-5.91a18.75,18.75,0,0,0-1.65-6.67,44,44,0,0,1-3.18-7.88c-1.35-5.6-.69-11.46.7-17a112.12,112.12,0,0,1,5.8-16.21c2.21-5.19,4.43-10.39,7-15.4,1.32-2.54,2.73-5,4.28-7.44,1.09-1.69,3.32-6.45,5.74-5.23,2.14,1.07,3.7,3.86,5.24,5.63,1.75,2,3.57,3.94,5.5,5.77,7.16,6.8,15.88,12.15,25.87,13.15,9.51,1,18.82-2.29,24.87-9.82,3.32-4.13,6.18-8.45,10.07-12.08a67.88,67.88,0,0,1,12.55-9.08,164.66,164.66,0,0,1,29.69-13,58.31,58.31,0,0,1,17.61-3.39c1.32,0,2.64,0,3.95.08a1.67,1.67,0,0,0,1.58.09c4.34.29,8.66.92,13,1.54,11.73,1.67,23.71,2.79,35.27,5.46a53.59,53.59,0,0,1,15.34,5.82,1.5,1.5,0,0,0,2.09-1.93c5.83-5.07,11.77-10,17.76-14.89,6.17-5,12.2-10.53,19.41-14.06,6.59-3.22,13.78-5,20.79-7a140.37,140.37,0,0,0,20.18-7.83c7-3.28,14.37-6.49,22.22-6.26-3.06,8.86-12.6,15-12.17,25.09.08,1.93,3.08,1.94,3,0-.22-5.06,2.72-9.26,5.55-13.19s5.91-8,7-12.92A1.52,1.52,0,0,0,432.62,22.9Zm-151.75,126c2.64-3.58,7.93-4.72,11.56-1.81a1.48,1.48,0,0,0,.79.31,1,1,0,0,0,.17.29l.08.07q-3.41,3.92-6.55,8.06a23.06,23.06,0,0,0-2.85,4.23,11.27,11.27,0,0,0-.48,2.47q-3.69-4.83-6.9-10A10.36,10.36,0,0,0,280.87,148.89Zm-22.6.23c1.77-2.63,3.61-5.77,6.94-3.26,2.48,1.87,4.18,4.71,6.93,6.23a20.54,20.54,0,0,0-4.51,3.85,21.33,21.33,0,0,0-2.27,3.23c-.41.72-.76,1.48-1.15,2.21-2.15-3.8-4-7.92-7.76-10.13A11.53,11.53,0,0,0,258.27,149.12ZM236,153.94a12.8,12.8,0,0,0,3.75-3.62c1-1.24,2-2.95,3.39-3.72,3-1.59,5.13,4.22,7.21,5.53l.08,0c-3.21,3.85-5.25,8.43-7,13.1-1.33-1.66-2.67-3.32-4-5a17.5,17.5,0,0,1-2.13-3.34c-.47-1-.86-2-1.31-3Zm-21.64-2.74c1-1.51,2.26-3.43,4.14-4,3.37-1,6.35,3,8.62,4.88a12.06,12.06,0,0,0,3.86,2.23,27.41,27.41,0,0,1-2.86,2.41,24,24,0,0,0-4,3.79,23.18,23.18,0,0,0-2.93,4.71c-.56,1.18-1.06,2.41-1.72,3.55a61.82,61.82,0,0,1-4.59-7.74,16.52,16.52,0,0,0-4.11-5.45A22.9,22.9,0,0,0,214.36,151.2Zm-21.23,2c.55-.64,1.39-1.73,2.35-1.43s1.36,1.56,1.84,2.25a8.81,8.81,0,0,0,2.21,2.18,8.67,8.67,0,0,0,1.65.87,24.07,24.07,0,0,0-6.09,8.54c-.39.92-.67,1.9-1,2.86-.43-.61-.81-1.31-1.15-1.82-.69-1-1.37-2.08-2-3.13-.92-1.47-1.78-3-2.63-4.48C190.31,157.53,191.53,155.08,193.13,153.21Zm-22.68,2.6c2.26-2.85,7.47-3,9.81-.17.9,1.09,1.44,2.4,2.4,3.35-2.86,2.8-4.81,6.44-6.68,10-.86-1.72-1.39-3.66-2.66-5.17a19.51,19.51,0,0,0-4.92-4A22.82,22.82,0,0,1,170.45,155.81Zm-21.21.93c2.22-1.62,4.52.07,6.24,1.62s3.45,3.34,5.78,4.19c.24.08.49.11.74.18-3.09,3.21-6.06,6.59-7.88,10.65l-10.92-9.83C145.74,161.84,146.77,158.55,149.24,156.74ZM132,159.68c2.45.59,4.42,3.15,6.68,4.25a39.46,39.46,0,0,0-4.91,6.68,19.84,19.84,0,0,0-1.75,4.24c-.16.59-.29,1.22-.48,1.82a22.76,22.76,0,0,0-3.84-5,65.63,65.63,0,0,0-6-4.84C124.23,163.28,126.88,158.45,132,159.68ZM327.7,74.17c-9.39-4.9-20-6.34-30.43-7.83l-18.88-2.7c-4.05-.57-8.11-1.17-12.18-1.51a58.51,58.51,0,0,1,26.87-30.05,225.11,225.11,0,0,1,23.2-10.81c7.32-2.91,14.93-4.94,22.47-7.2,7.71-2.31,15.37-5,22.3-9.12,1.89,8.46,4.61,18-.31,25.66-2.38,3.72-5.19,7-7.24,11A51.58,51.58,0,0,0,349,54.14a1.44,1.44,0,0,0,.77,1.65l-.72.59C341.82,62.21,334.68,68.09,327.7,74.17Z" transform="translate(-1.39 -0.64)"/><path class="cls-10" d="M161.48,128.17a19.49,19.49,0,0,1-9.2,3.44c-2.95.29-6,.25-8.8,1.4a9.19,9.19,0,0,0-3.63,2.62,11.83,11.83,0,0,0-2.51,4.46c-.76,3.27,2.44,5.95,5.21,6.86,3.64,1.21,7.53,0,10.6-2.11a1.44,1.44,0,0,0,.65-1.24c.83-.56,1.74-1,2.56-1.59a13.24,13.24,0,0,0,3.2-3.35c1.83-2.67,2.9-5.83,4.12-8.8C164.17,128.66,162.5,127.45,161.48,128.17Zm-4.51,9a9.82,9.82,0,0,1-3,2.86,13.46,13.46,0,0,0-3.49,2.49,1.45,1.45,0,0,0-.32.63c-2.52,1.32-5.49,1.94-8,.33a4.65,4.65,0,0,1-1.51-1.45c-.61-1-.21-1.64.3-2.54A7.91,7.91,0,0,1,144.2,136c2.72-1.34,6-1.07,9-1.44a22.3,22.3,0,0,0,6.1-1.71A25.42,25.42,0,0,1,157,137.15Z" transform="translate(-1.39 -0.64)"/><path class="cls-10" d="M289.22,100a25.63,25.63,0,0,0-3.53-5c-6.32-7-16.08-10.42-25.38-10.23a1.35,1.35,0,0,0-.86.32,1.22,1.22,0,0,0-1.13.47c-7.64,8.89-14.62,18.41-21.87,27.62-2.22,2.83-7.15,7.33-4.2,11.25,1.22,1.61,3,1.58,4.8,1.11,3.08-.81,6.12-1.85,9.16-2.8q16.54-5.14,32.88-10.89c2.69-.94,5.42-1.83,8.07-2.88,1.6-.63,3.24-1.57,3.67-3.37S290.09,101.66,289.22,100Zm-3.29,6.29c-2.28.9-4.63,1.66-6.94,2.48q-13.9,4.89-28,9.36-6.85,2.17-13.73,4.25c-.92.28-2.45,1-2.91-.23-.34-.91.47-2,1-2.71,1.43-2,3-3.9,4.58-5.83,6.77-8.6,13.29-17.49,20.41-25.79a31.5,31.5,0,0,1,20.19,6.5,23.51,23.51,0,0,1,6.43,7.89c.31.63,1.06,1.77.95,2.51C287.78,105.72,286.71,106,285.93,106.33Z" transform="translate(-1.39 -0.64)"/></g></svg>